<svg width="18" height="18" viewBox="0 0 18 18" fill="none" xmlns="http://www.w3.org/2000/svg">
<path d="M8.10232 2.67407H2.57829C2.1597 2.67407 1.75826 2.84036 1.46227 3.13634C1.16628 3.43233 1 3.83378 1 4.25237V15.3004C1 15.719 1.16628 16.1205 1.46227 16.4164C1.75826 16.7124 2.1597 16.8787 2.57829 16.8787H13.6264C14.0449 16.8787 14.4464 16.7124 14.7424 16.4164C15.0384 16.1205 15.2046 15.719 15.2046 15.3004V9.77639" stroke="#656363" stroke-width="2" stroke-linecap="round" stroke-linejoin="round"/>
<path d="M14.0209 1.49031C14.3348 1.17637 14.7606 1 15.2046 1C15.6486 1 16.0744 1.17637 16.3883 1.49031C16.7023 1.80426 16.8787 2.23005 16.8787 2.67403C16.8787 3.11801 16.7023 3.54381 16.3883 3.85775L8.89145 11.3547L5.73486 12.1438L6.52401 8.98721L14.0209 1.49031Z" stroke="#656363" stroke-width="2" stroke-linecap="round" stroke-linejoin="round"/>
</svg>
